<?xml version="1.0" standalone="no"?>
<!DOCTYPE svg PUBLIC "-//W3C//DTD SVG 20010904//EN"
 "http://www.w3.org/TR/2001/REC-SVG-20010904/DTD/svg10.dtd">
<svg version="1.0" xmlns="http://www.w3.org/2000/svg"
 width="1000.000000pt" height="1000.000000pt" viewBox="0 0 1000.000000 1000.000000"
 preserveAspectRatio="xMidYMid meet">

<g transform="translate(0.000000,1000.000000) scale(0.100000,-0.100000)"
fill="#000000" stroke="none">
<path d="M4842 8651 c-7 -4 -85 -199 -173 -432 -132 -349 -159 -431 -155 -462
2 -22 -3 -58 -12 -83 -9 -24 -14 -45 -12 -47 3 -2 133 -55 290 -117 157 -62
294 -121 306 -131 13 -12 35 -19 61 -19 23 0 195 -25 384 -55 189 -31 351 -55
362 -53 15 2 55 98 198 478 98 261 181 482 184 491 4 13 -4 18 -37 22 -31 4
-49 14 -68 36 -21 26 -45 36 -155 67 -169 47 -331 56 -467 27 l-87 -20 -47 38
c-91 76 -236 150 -457 235 -98 37 -96 37 -115 25z m147 -57 c236 -94 451 -217
451 -258 0 -13 -307 -836 -315 -844 -2 -2 -29 16 -59 41 -30 24 -99 67 -153
95 -94 48 -341 152 -362 152 -5 0 -12 4 -15 9 -5 7 291 812 309 841 10 16 21
13 144 -36z m996 -260 c77 -20 144 -39 148 -43 4 -4 -63 -198 -150 -430 -155
-413 -159 -422 -183 -418 -14 3 -68 14 -120 26 -112 26 -410 42 -410 22 0 -8
37 -11 123 -11 133 0 205 -9 338 -41 87 -21 87 -21 103 -63 9 -23 16 -46 16
-52 0 -9 -592 83 -647 100 -11 3 -29 16 -41 29 l-21 22 162 432 161 431 86 16
c47 9 96 18 110 20 57 10 194 -7 325 -40z m195 -104 c11 -28 2 -58 -146 -460
-87 -236 -161 -430 -165 -430 -3 0 -11 19 -18 42 -13 42 -12 45 145 464 87
233 161 421 165 418 3 -2 12 -17 19 -34z m-1508 -514 c175 -70 299 -133 376
-191 62 -47 73 -62 50 -70 -12 -5 -535 199 -550 213 -8 9 -22 102 -15 102 3 0
65 -24 139 -54z"/>
<path d="M4890 8503 c0 -5 53 -33 117 -63 139 -66 133 -64 133 -52 0 8 -227
122 -243 122 -4 0 -7 -3 -7 -7z"/>
<path d="M4984 8291 c4 -6 31 -23 59 -38 64 -32 129 -76 179 -121 21 -19 38
-30 38 -24 0 19 -106 107 -174 144 -76 42 -112 56 -102 39z"/>
<path d="M4780 8203 c1 -5 72 -43 158 -85 102 -50 175 -93 210 -124 29 -25 56
-44 59 -40 20 19 -112 110 -278 191 -135 66 -149 71 -149 58z"/>
<path d="M4800 8065 c0 -3 62 -36 138 -74 76 -38 157 -85 181 -105 58 -49 77
-45 22 4 -24 22 -106 71 -182 110 -128 65 -159 78 -159 65z"/>
<path d="M4870 7912 c0 -4 33 -24 73 -44 39 -19 97 -54 127 -77 30 -22 59 -41
65 -41 23 1 -83 81 -165 124 -91 48 -100 51 -100 38z"/>
<path d="M4680 7861 c0 -4 33 -20 73 -36 109 -42 258 -121 305 -161 28 -24 42
-31 42 -21 0 21 -69 69 -180 126 -103 53 -240 105 -240 92z"/>
<path d="M5565 8263 c-75 -12 -37 -21 71 -16 108 4 130 2 239 -25 109 -28 138
-32 123 -17 -3 3 -50 17 -104 31 -97 25 -260 39 -329 27z"/>
<path d="M5513 8153 c-73 -10 -25 -18 115 -19 126 0 161 -4 242 -27 88 -24
113 -26 97 -11 -3 4 -50 18 -104 31 -96 24 -272 38 -350 26z"/>
<path d="M5585 8051 c-2 -5 25 -12 61 -16 37 -4 112 -18 167 -31 97 -24 139
-26 82 -4 -77 29 -300 66 -310 51z"/>
<path d="M5440 7943 c-79 -10 -41 -18 93 -18 124 0 154 -3 240 -28 107 -29
127 -32 111 -18 -5 5 -56 22 -114 37 -103 26 -249 38 -330 27z"/>
<path d="M5440 7854 c-14 -2 -40 -7 -58 -10 -18 -3 -30 -9 -28 -13 3 -4 31 -4
63 1 74 13 198 3 293 -22 85 -22 90 -23 90 -12 0 24 -289 69 -360 56z"/>
<path d="M5410 7754 c-14 -2 -40 -7 -58 -10 -64 -10 -22 -20 47 -10 45 6 100
6 151 0 75 -9 107 -4 58 10 -32 8 -168 15 -198 10z"/>
<path d="M5315 7643 c-70 -11 -35 -18 98 -18 115 0 157 -5 224 -23 86 -23 131
-29 103 -13 -59 35 -332 70 -425 54z"/>
<path d="M3153 8625 c-204 -44 -365 -207 -408 -412 -18 -86 -18 -130 0 -218
43 -201 193 -357 396 -410 129 -34 334 2 463 82 101 62 192 179 226 291 27 87
27 227 0 314 -52 170 -198 306 -376 353 -71 18 -216 18 -301 0z m226 -20 c217
-52 375 -236 397 -465 22 -232 -142 -466 -375 -534 -70 -21 -202 -21 -272 0
-269 79 -432 355 -364 619 42 163 169 308 315 360 102 37 199 43 299 20z"/>
<path d="M3264 8535 c-9 -23 3 -45 24 -45 28 0 43 20 31 42 -12 22 -47 24 -55
3z"/>
<path d="M3057 8504 c-12 -12 -8 -41 8 -54 20 -17 47 5 43 34 -3 21 -37 34
-51 20z"/>
<path d="M3464 8458 c-9 -28 20 -52 47 -37 11 5 19 14 19 19 0 42 -53 57 -66
18z"/>
<path d="M2890 8351 c-7 -15 -6 -24 6 -36 9 -9 21 -14 27 -12 18 6 31 33 24
51 -9 22 -44 20 -57 -3z"/>
<path d="M3200 8343 c0 -5 12 -62 27 -127 l28 -119 133 -89 c73 -49 139 -87
145 -85 6 2 -50 45 -125 95 l-137 91 -28 121 c-15 66 -31 120 -35 120 -5 0 -8
-3 -8 -7z"/>
<path d="M3610 8306 c-27 -33 18 -72 48 -42 13 13 14 20 6 34 -15 23 -38 26
-54 8z"/>
<path d="M2829 8154 c-15 -18 -2 -47 24 -52 22 -5 42 35 26 54 -15 18 -33 18
-50 -2z"/>
<path d="M3656 8095 c-20 -21 -5 -55 25 -55 24 0 36 27 22 48 -14 23 -29 25
-47 7z"/>
<path d="M2864 7936 c-10 -26 4 -48 28 -44 17 2 23 10 23 28 0 18 -6 26 -23
28 -13 2 -25 -3 -28 -12z"/>
<path d="M3592 7898 c-30 -30 1 -73 36 -51 23 14 25 29 7 47 -20 19 -27 20
-43 4z"/>
<path d="M3007 7776 c-11 -28 4 -47 32 -44 20 2 26 8 26 28 0 20 -6 26 -26 28
-17 2 -29 -3 -32 -12z"/>
<path d="M3424 7746 c-10 -26 4 -48 28 -44 17 2 23 10 23 28 0 18 -6 26 -23
28 -13 2 -25 -3 -28 -12z"/>
<path d="M3214 7706 c-10 -26 4 -48 28 -44 17 2 23 10 23 28 0 18 -6 26 -23
28 -13 2 -25 -3 -28 -12z"/>
<path d="M1970 8210 c0 -22 5 -40 10 -40 6 0 10 18 10 40 0 22 -4 40 -10 40
-5 0 -10 -18 -10 -40z"/>
<path d="M7490 8152 c-54 -56 -112 -126 -134 -165 l-39 -68 -102 101 c-68 67
-110 100 -125 100 -65 0 -470 -488 -470 -567 0 -53 256 -285 472 -428 73 -49
145 -93 160 -99 33 -12 50 -4 143 69 39 31 121 81 184 112 69 35 116 65 120
77 13 34 0 65 -40 97 l-39 31 56 64 c69 78 72 104 19 148 l-37 31 50 75 c27
42 83 113 125 158 110 116 111 110 -56 244 -130 105 -149 118 -171 118 -13 0
-55 -35 -116 -98z m207 21 c38 -31 72 -59 77 -64 4 -4 -8 -29 -28 -55 -20 -26
-36 -56 -36 -67 0 -11 21 -39 46 -63 l47 -42 -45 -52 c-25 -28 -66 -88 -93
-133 -71 -122 -75 -128 -90 -134 -21 -7 -86 43 -197 154 l-98 97 42 75 c22 42
59 103 81 136 55 81 179 205 206 205 11 0 51 -25 88 -57z m-492 -173 l99 -99
-17 -36 c-9 -20 -17 -44 -17 -54 0 -20 181 -199 248 -245 37 -25 46 -27 67
-18 14 7 33 27 42 47 9 19 20 35 24 35 16 0 70 -53 67 -66 -2 -7 -27 -42 -57
-78 l-54 -65 -61 46 c-108 82 -193 162 -281 263 -99 114 -97 113 -213 75 -108
-36 -229 -97 -318 -162 -42 -30 -78 -53 -79 -51 -2 2 38 62 88 133 97 136 317
375 346 375 9 0 61 -45 116 -100z m648 47 c47 -36 47 -62 3 -112 l-35 -38 -38
28 c-65 49 -68 65 -20 123 35 43 34 43 90 -1z m-626 -300 c76 -93 225 -232
346 -322 59 -44 109 -88 112 -97 11 -32 -15 -57 -99 -96 -85 -40 -178 -99
-252 -159 -23 -18 -50 -33 -60 -33 -23 0 -242 141 -339 218 -84 67 -295 272
-295 286 0 17 167 131 255 176 97 48 209 88 251 89 26 1 38 -9 81 -62z"/>
<path d="M7510 8072 c0 -20 188 -204 200 -197 6 4 10 8 8 9 -2 0 -50 46 -106
101 -56 55 -102 94 -102 87z"/>
<path d="M7450 7984 c0 -24 167 -184 192 -184 8 0 -181 189 -189 190 -2 0 -3
-3 -3 -6z"/>
<path d="M1840 8100 c0 -5 15 -10 34 -10 19 0 38 5 41 10 4 6 -10 10 -34 10
-23 0 -41 -4 -41 -10z"/>
<path d="M2050 8100 c0 -5 15 -10 34 -10 19 0 38 5 41 10 4 6 -10 10 -34 10
-23 0 -41 -4 -41 -10z"/>
<path d="M1983 8000 c0 -25 2 -35 4 -22 2 12 2 32 0 45 -2 12 -4 2 -4 -23z"/>
<path d="M8210 7630 c-38 -38 -14 -100 38 -100 25 0 62 33 62 54 0 22 -40 66
-61 66 -10 0 -28 -9 -39 -20z"/>
<path d="M3070 7339 c-41 -22 -90 -55 -107 -74 l-33 -35 0 -618 0 -619 -23
-21 c-13 -12 -26 -22 -29 -22 -3 0 -22 16 -42 35 -28 26 -46 35 -72 35 -116 0
-240 -157 -297 -379 l-24 -93 -46 -4 c-115 -9 -189 -88 -189 -204 0 -73 33
-140 104 -210 55 -54 177 -132 238 -151 61 -20 63 -25 57 -115 -8 -128 -61
-224 -162 -294 -40 -28 -44 -28 -206 -32 -156 -3 -167 -5 -222 -31 -178 -87
-271 -299 -292 -662 -6 -107 6 -387 21 -456 5 -25 9 -27 72 -31 63 -3 75 -8
188 -76 203 -121 390 -200 609 -257 187 -49 275 -62 574 -85 160 -13 288 -28
321 -38 117 -35 233 -162 259 -283 7 -32 11 -252 11 -614 0 -311 2 -565 4
-565 2 0 75 -11 163 -25 150 -23 433 -56 591 -69 l74 -6 -24 28 c-12 16 -52
62 -87 103 -99 114 -199 253 -276 385 -79 134 -162 331 -147 346 5 5 26 4 55
-3 31 -9 52 -10 67 -3 18 8 49 -1 154 -43 183 -73 300 -103 426 -110 101 -5
109 -4 175 24 177 74 600 389 948 706 l88 80 46 -23 c25 -12 78 -27 118 -33
196 -28 474 101 515 239 8 26 22 46 40 56 16 9 36 28 45 42 24 36 5 88 -55
146 -120 116 -283 153 -459 104 -63 -18 -119 -54 -176 -114 -98 -102 -306
-232 -646 -401 -264 -132 -447 -196 -584 -205 -107 -7 -134 8 -235 121 -76 85
-79 92 -73 125 13 64 7 223 -10 280 -9 30 -30 77 -47 104 -17 26 -29 50 -27
52 1 2 136 -22 298 -52 258 -49 300 -54 341 -45 58 13 540 214 590 247 20 13
50 45 65 71 27 47 28 53 33 228 l5 181 550 -99 549 -99 71 -72 c198 -203 478
-303 745 -266 361 49 650 300 750 650 31 107 38 299 16 409 -86 422 -444 721
-866 724 -58 0 -120 -3 -137 -7 l-33 -8 0 271 c0 149 4 271 8 271 4 0 24 -16
43 -36 37 -39 167 -128 238 -164 31 -15 53 -20 76 -16 50 10 221 97 305 157
101 71 270 243 352 359 68 96 178 295 178 322 0 11 -32 23 -107 43 -215 55
-379 133 -481 229 l-52 49 -56 -62 c-102 -112 -264 -207 -424 -249 l-75 -20
-5 103 c-4 93 -8 106 -30 130 -14 15 -32 31 -41 36 -9 4 -178 38 -375 73 -198
36 -960 173 -1694 306 -734 132 -1496 270 -1693 305 -196 36 -376 65 -400 65
-30 0 -63 -12 -117 -41z m356 -119 c598 -108 1226 -222 1689 -305 231 -42 605
-109 830 -150 226 -41 599 -108 830 -150 231 -41 433 -80 448 -87 38 -15 57
-56 57 -126 l0 -59 -66 -6 c-36 -2 -67 -7 -70 -10 -7 -7 26 -144 48 -202 11
-27 35 -80 54 -118 l34 -68 0 -383 0 -384 -54 -22 c-182 -73 -368 -258 -456
-453 -54 -120 -74 -217 -74 -367 0 -187 39 -329 129 -471 18 -29 32 -55 31
-57 -2 -1 -216 36 -477 83 -1054 191 -1555 281 -2414 436 -495 89 -906 167
-914 173 -33 26 21 234 80 310 19 24 25 25 99 23 69 -2 82 1 100 19 27 27 39
80 40 175 0 73 1 76 35 109 19 19 35 41 35 49 0 8 15 27 33 42 31 26 32 28 32
110 0 95 7 89 -91 75 l-51 -7 -6 37 c-5 31 -1 43 27 78 129 161 135 300 22
455 -40 54 -108 95 -184 111 -60 13 -139 -3 -222 -45 l-50 -25 0 605 c0 415 3
613 11 626 8 16 38 35 75 49 1 0 176 -32 390 -70z m4602 -601 c55 -48 152
-106 238 -142 74 -31 287 -97 315 -97 10 0 19 -5 19 -10 0 -35 -148 -283 -229
-385 -58 -72 -195 -206 -266 -259 -117 -88 -286 -176 -339 -176 -31 0 -173 85
-256 153 -161 132 -310 383 -344 580 l-7 37 58 0 c149 0 352 53 496 128 91 48
210 140 240 186 10 14 20 26 23 26 3 0 27 -18 52 -41z m-4688 -1198 c0 -27 -3
-29 -52 -35 -29 -4 -64 -9 -78 -12 -14 -3 2 9 35 26 33 17 64 35 70 41 16 16
25 10 25 -20z m150 -82 c0 -75 -20 -118 -56 -119 -14 0 -64 109 -64 138 0 17
8 22 38 27 20 4 42 8 47 10 31 10 35 4 35 -56z m-135 4 c3 -21 22 -67 41 -103
l34 -65 -40 -33 -40 -34 0 -99 c0 -155 -20 -178 -144 -164 -63 6 -64 6 -86
-25 -34 -47 -88 -183 -96 -238 -11 -88 33 -179 107 -218 37 -18 37 -41 2 -55
-141 -54 -457 -73 -598 -35 -96 26 -189 72 -247 125 -56 50 -55 57 27 86 132
47 228 127 277 231 26 55 31 81 34 152 l2 86 46 -3 c77 -4 156 17 192 53 31
31 64 114 64 163 l0 23 33 -20 c34 -21 117 -28 117 -10 0 6 -10 8 -24 4 -35
-8 -93 20 -116 58 -59 96 21 170 105 97 34 -30 35 -30 33 -8 -3 22 2 24 127
45 72 12 133 22 136 23 4 0 10 -16 14 -36z m4438 -163 c43 -10 98 -28 123 -39
39 -18 45 -24 42 -47 -2 -15 -15 -36 -30 -47 -23 -17 -32 -18 -68 -9 -33 8
-43 7 -55 -5 -28 -27 -15 -153 15 -153 5 0 21 18 35 41 22 33 29 38 41 29 16
-14 18 -53 4 -81 -8 -14 -21 -19 -50 -19 -48 0 -80 -27 -80 -69 0 -15 -9 -40
-21 -55 -22 -28 -23 -77 -1 -84 8 -2 40 24 72 59 l59 64 33 -14 c18 -7 48 -16
66 -18 30 -5 33 -3 38 27 9 41 32 50 56 21 23 -30 23 -34 -7 -69 -33 -39 -32
-58 6 -77 26 -14 28 -19 18 -31 -10 -12 -23 -14 -53 -9 -23 3 -56 6 -73 6 -22
0 -39 8 -52 25 -24 30 -36 30 -75 0 -17 -13 -50 -33 -73 -45 -23 -11 -46 -29
-51 -39 -5 -9 -6 -63 -3 -120 7 -128 12 -133 123 -131 45 1 84 -3 92 -10 7 -6
16 -42 19 -84 4 -41 13 -87 22 -103 20 -38 19 -45 -10 -114 -14 -33 -25 -77
-25 -99 0 -47 15 -91 31 -91 23 0 160 156 192 220 28 56 32 75 33 145 0 71 3
85 28 120 19 28 26 48 22 65 -19 89 -19 93 5 136 l23 43 -23 31 c-27 38 -21
49 14 26 37 -24 52 -53 70 -131 9 -38 21 -78 27 -89 10 -19 11 -19 24 -1 8 10
14 33 14 51 0 18 10 50 22 70 l22 38 9 -40 c5 -21 6 -102 4 -179 -6 -169 -33
-277 -76 -300 -37 -18 -58 -45 -65 -82 -5 -20 -26 -49 -62 -81 -50 -46 -54
-53 -54 -94 0 -42 -2 -45 -72 -101 -89 -70 -205 -128 -318 -159 -71 -19 -108
-23 -225 -22 -121 1 -152 5 -228 28 -306 92 -520 311 -609 622 -19 66 -23 103
-23 224 0 167 18 248 85 385 51 104 134 216 138 187 2 -11 -11 -48 -28 -82
-43 -86 -59 -210 -35 -283 21 -66 64 -141 109 -192 27 -32 37 -37 47 -28 19
19 15 92 -9 156 -38 100 -26 131 35 94 42 -24 63 -17 63 24 0 23 9 40 34 63
18 17 39 41 45 54 6 12 38 35 69 51 55 28 58 31 70 83 7 29 15 63 18 75 4 15
0 24 -15 33 -18 9 -30 6 -71 -17 -47 -26 -50 -27 -67 -11 -16 17 -16 20 0 53
11 23 25 37 44 41 98 22 104 25 101 46 -6 42 -31 44 -113 9 -54 -23 -89 -31
-119 -29 l-41 3 60 37 c101 61 219 101 360 122 59 9 223 -4 298 -24z m-3978
-850 c402 -72 740 -134 753 -137 22 -5 22 -8 22 -162 0 -86 -5 -174 -11 -195
-19 -68 -80 -120 -209 -176 -62 -28 -119 -50 -126 -50 -6 0 -29 19 -50 43
-365 410 -693 650 -1013 742 -84 23 -120 43 -121 67 0 4 6 5 13 3 6 -2 341
-63 742 -135z m1300 -235 c264 -47 490 -88 503 -90 22 -5 22 -8 22 -163 -1
-244 -11 -258 -291 -377 -233 -98 -252 -105 -304 -105 -34 0 -709 117 -710
123 -1 1 -20 25 -44 54 l-42 52 38 16 c171 72 225 100 254 133 55 63 61 89 60
270 -1 89 1 167 4 172 3 5 11 7 18 5 7 -2 228 -43 492 -90z m1378 -720 c79
-20 131 -49 187 -101 59 -55 78 -95 61 -130 -16 -37 -68 -54 -196 -63 -111 -8
-119 -11 -232 -65 -65 -30 -148 -62 -185 -69 -78 -17 -67 -9 -284 -201 -228
-201 -501 -418 -661 -526 -226 -153 -292 -177 -433 -160 -47 6 -111 18 -142
26 -111 28 -368 125 -368 138 0 2 20 39 45 81 98 165 189 373 217 495 6 28 14
50 17 50 3 0 20 -19 36 -41 55 -75 139 -147 186 -159 154 -43 525 96 1021 382
160 92 230 142 325 231 78 74 116 96 193 113 76 17 146 17 213 -1z m167 -315
c0 -43 -97 -143 -180 -185 -70 -36 -190 -65 -265 -65 -62 0 -155 22 -187 44
-17 12 -16 14 5 33 33 30 41 33 104 43 33 6 107 34 176 67 93 44 135 58 186
63 106 11 161 11 161 0z"/>
<path d="M3622 6728 c-19 -19 -17 -1861 2 -1880 8 -8 176 -43 412 -86 1849
-335 2451 -442 2475 -442 18 0 32 7 39 19 7 13 10 323 10 934 0 857 -1 916
-17 935 -16 18 -208 55 -1438 276 -781 141 -1431 256 -1445 256 -15 0 -31 -5
-38 -12z m293 -48 c1615 -290 2609 -471 2616 -476 5 -3 9 -403 9 -928 0 -727
-3 -926 -12 -934 -9 -7 -224 28 -723 118 -390 71 -1025 185 -1410 254 -385 70
-713 130 -730 134 l-30 8 -3 924 c-1 509 0 931 3 938 3 9 14 12 32 8 16 -3
127 -24 248 -46z"/>
<path d="M3845 6260 c-3 -5 -4 -10 -1 -10 5 0 1667 -299 2200 -396 136 -25
255 -43 265 -41 14 3 14 5 1 10 -8 3 -193 37 -410 76 -609 108 -2002 360
-2027 366 -12 3 -25 1 -28 -5z"/>
<path d="M3846 6081 c5 -5 239 -50 519 -100 281 -51 758 -137 1060 -192 303
-54 559 -99 570 -98 l20 0 -20 9 c-11 5 -173 37 -360 70 -329 59 -1017 183
-1526 275 -263 48 -278 50 -263 36z"/>
<path d="M3856 5901 c5 -4 50 -15 99 -24 192 -34 2272 -408 2313 -416 23 -5
45 -5 47 -1 6 10 7 10 -545 109 -245 44 -771 139 -1170 211 -399 71 -732 130
-740 130 -8 0 -10 -3 -4 -9z"/>
<path d="M3850 5731 c0 -12 -33 -5 500 -101 245 -44 460 -82 478 -86 19 -4 32
-2 32 4 0 5 -30 15 -67 22 -129 22 -898 160 -920 165 -13 3 -23 1 -23 -4z"/>
<path d="M3846 5551 c5 -5 340 -68 744 -141 404 -72 747 -134 763 -137 15 -3
27 -1 27 5 0 5 -30 15 -67 22 -38 6 -378 67 -758 136 -379 68 -696 124 -704
124 -9 0 -11 -3 -5 -9z"/>
<path d="M5610 5412 c0 -10 685 -136 703 -129 21 8 -6 14 -356 76 -379 69
-347 64 -347 53z"/>
<path d="M3840 5381 c0 -6 2 -11 6 -11 6 0 2028 -366 2267 -411 88 -16 171
-29 185 -28 l27 1 -25 8 c-14 5 -563 106 -1220 225 -657 119 -1205 219 -1217
222 -14 3 -23 0 -23 -6z"/>
<path d="M3850 5201 c0 -6 2 -11 4 -11 3 0 281 -50 618 -111 337 -61 773 -139
968 -174 318 -58 374 -66 359 -51 -2 3 -432 82 -954 176 -523 94 -960 174
-972 177 -14 3 -23 1 -23 -6z"/>
<path d="M5814 5199 c-3 -5 -4 -9 -2 -9 2 0 113 -20 248 -44 222 -40 263 -45
249 -32 -2 3 -106 23 -229 45 -124 23 -233 43 -242 45 -10 2 -21 0 -24 -5z"/>
<path d="M7960 6531 c0 -14 135 -98 235 -146 95 -46 232 -91 242 -81 9 8 7 9
-77 35 -93 29 -233 96 -324 156 -75 49 -76 49 -76 36z"/>
<path d="M7880 6472 c0 -14 79 -86 87 -79 4 4 -11 25 -32 47 -38 39 -55 49
-55 32z"/>
<path d="M7800 6399 c0 -18 172 -183 240 -231 90 -63 217 -131 224 -120 3 5
-22 23 -57 40 -129 65 -259 165 -350 271 -42 50 -57 60 -57 40z"/>
<path d="M7700 6364 c0 -14 88 -131 142 -190 93 -99 328 -268 328 -235 0 6
-17 19 -38 30 -112 57 -320 247 -388 355 -26 40 -44 57 -44 40z"/>
<path d="M8030 6341 c0 -27 280 -170 335 -171 30 0 6 16 -55 35 -69 22 -149
62 -219 109 -58 39 -61 41 -61 27z"/>
<path d="M7601 6310 c-1 -39 163 -277 199 -288 8 -3 -4 17 -28 45 -23 28 -67
90 -97 139 -81 132 -74 121 -74 104z"/>
<path d="M7505 5950 c-4 -6 15 -10 49 -10 60 0 64 -3 41 -26 -20 -21 -19 -35
4 -41 12 -3 21 -15 23 -32 3 -25 5 -26 61 -23 l57 3 0 -40 c0 -23 5 -41 10
-41 6 0 10 20 10 44 0 51 -10 58 -75 49 -43 -5 -45 -5 -45 20 0 17 -7 28 -21
32 -19 6 -20 8 -4 26 30 32 12 49 -49 49 -30 0 -58 -4 -61 -10z"/>
<path d="M7870 5950 c0 -19 153 -124 172 -118 6 2 -31 32 -81 66 -50 33 -91
57 -91 52z"/>
<path d="M7398 5173 c-31 -5 -55 -30 -42 -43 5 -4 20 -10 34 -12 23 -3 25 -8
31 -73 6 -77 13 -101 34 -109 15 -6 29 9 39 41 4 13 27 37 50 54 59 42 74 70
53 103 -9 13 -29 27 -44 30 -48 9 -127 14 -155 9z"/>
<path d="M7116 4334 c-9 -8 -16 -32 -16 -53 0 -21 -11 -59 -25 -85 -27 -50
-34 -131 -15 -167 6 -10 33 -30 60 -44 54 -28 52 -18 65 -213 6 -90 42 -197
76 -228 34 -31 41 -5 18 64 l-21 61 37 59 c19 32 44 81 53 108 14 39 25 53 56
68 35 17 37 21 31 53 -3 19 -9 41 -12 48 -3 8 11 29 34 50 37 34 38 36 23 62
-10 17 -31 33 -55 41 -51 17 -85 49 -85 79 0 18 -9 28 -37 40 -21 8 -53 28
-71 44 -37 33 -91 39 -116 13z"/>
<path d="M2011 7200 c-78 -17 -181 -61 -255 -110 -75 -51 -202 -168 -192 -177
3 -4 34 21 68 54 195 185 428 263 616 205 180 -57 278 -211 275 -437 -2 -115
-30 -222 -88 -338 -51 -101 -51 -101 6 -199 21 -36 39 -68 39 -71 0 -2 -30 7
-67 19 -103 36 -126 33 -188 -24 -334 -306 -756 -255 -851 103 -18 66 -17 203
1 290 18 83 18 92 6 80 -16 -17 -41 -161 -41 -237 0 -280 197 -476 456 -454
150 12 306 84 440 202 l62 54 54 -15 c31 -8 79 -23 108 -34 30 -11 56 -19 58
-17 2 3 -21 47 -52 98 -31 52 -56 99 -56 105 0 6 18 46 39 89 69 140 86 210
86 364 0 123 -3 141 -26 198 -48 114 -128 194 -231 234 -61 23 -198 32 -267
18z"/>
<path d="M8209 7151 c-35 -36 -37 -69 -4 -105 23 -25 56 -33 90 -20 18 7 45
55 45 79 0 24 -55 75 -80 75 -12 0 -35 -13 -51 -29z m91 -11 c24 -24 26 -57 3
-82 -33 -37 -103 -11 -103 39 0 28 33 63 60 63 11 0 29 -9 40 -20z"/>
<path d="M1919 7057 c-45 -17 -100 -51 -122 -75 -15 -17 -15 -20 9 -56 l26
-38 39 38 c36 35 44 39 95 39 50 0 59 -3 77 -27 27 -36 25 -86 -7 -186 -28
-89 -32 -136 -16 -194 13 -47 18 -50 64 -36 31 10 36 15 31 32 -20 63 -16 122
14 210 17 50 31 108 31 131 0 49 -35 122 -72 149 -34 24 -120 31 -169 13z"/>
<path d="M1400 6834 c-25 -20 -46 -41 -48 -48 -3 -12 324 -426 346 -440 13 -8
94 55 88 69 -2 6 -73 112 -157 233 -93 136 -158 222 -168 221 -9 0 -36 -16
-61 -35z"/>
<path d="M2074 6415 c-19 -29 -13 -66 16 -95 27 -27 56 -25 85 5 28 27 31 45
14 78 -16 30 -28 37 -66 37 -24 0 -37 -7 -49 -25z"/>
<path d="M1797 6279 c-34 -26 -35 -62 -2 -94 29 -30 58 -32 85 -5 56 56 -21
149 -83 99z"/>
<path d="M8160 5180 c-34 -34 -25 -56 61 -137 106 -101 162 -177 220 -298 69
-144 93 -248 93 -415 0 -151 -20 -254 -74 -382 -62 -146 -195 -310 -325 -404
-74 -53 -193 -110 -292 -141 -81 -25 -102 -27 -258 -27 -198 -1 -265 14 -422
89 -100 49 -123 53 -148 29 -28 -29 -15 -74 30 -106 89 -61 330 -138 435 -138
l40 0 0 -104 0 -103 -72 -6 c-215 -19 -306 -107 -171 -165 78 -33 169 -46 318
-45 191 1 324 36 354 92 26 48 -82 103 -234 119 l-70 7 0 100 0 100 70 8 c91
9 228 49 321 91 503 233 748 825 560 1351 -62 173 -178 345 -306 453 -67 57
-98 64 -130 32z"/>
<path d="M1730 3333 c-63 -16 -64 -17 -32 -24 18 -3 93 -43 165 -87 232 -141
404 -217 627 -278 173 -48 321 -70 630 -94 264 -21 265 -21 337 -56 82 -39
138 -96 180 -183 l28 -56 1 -540 2 -540 23 -6 c13 -4 34 -7 47 -8 l23 -1 -3
583 -3 582 -26 55 c-45 96 -123 168 -219 203 -29 11 -138 24 -310 37 -428 34
-615 74 -904 194 -118 49 -169 75 -306 156 -131 78 -165 86 -260 63z"/>
<path d="M1640 2950 c0 -18 79 -170 148 -285 210 -349 535 -676 877 -882 138
-83 185 -106 305 -148 134 -46 400 -119 407 -111 9 9 8 10 -127 46 -364 97
-530 177 -810 388 -130 99 -323 287 -424 412 -101 127 -227 319 -301 463 -64
122 -75 139 -75 117z"/>
<path d="M6853 2155 c-50 -21 -59 -80 -18 -120 50 -51 125 -19 125 54 0 60
-49 90 -107 66z m72 -30 c29 -28 31 -42 9 -73 -18 -26 -65 -30 -88 -6 -24 23
-20 70 6 88 31 22 45 20 73 -9z"/>
<path d="M6281 1916 c-14 -14 -21 -29 -17 -33 9 -9 49 32 44 47 -2 6 -13 1
-27 -14z"/>
<path d="M6110 1922 c0 -14 46 -53 53 -45 4 3 -3 17 -15 30 -22 23 -38 30 -38
15z"/>
<path d="M6260 1784 c0 -13 48 -59 55 -52 3 2 -9 17 -25 33 -17 16 -30 24 -30
19z"/>
<path d="M6130 1755 c-13 -14 -21 -27 -18 -30 2 -3 17 9 33 25 16 17 24 30 19
30 -6 0 -21 -11 -34 -25z"/>
</g>
</svg>
