<?xml version="1.0" encoding="UTF-8"?>
<!DOCTYPE svg PUBLIC "-//W3C//DTD SVG 1.1//EN" "http://www.w3.org/Graphics/SVG/1.1/DTD/svg11.dtd">
<!-- Creator: CorelDRAW -->
<svg xmlns="http://www.w3.org/2000/svg" xml:space="preserve" width="200px" height="240px" version="1.1" style="shape-rendering:geometricPrecision; text-rendering:geometricPrecision; image-rendering:optimizeQuality; fill-rule:evenodd; clip-rule:evenodd"
viewBox="0 0 183.48 222.09"
 xmlns:xlink="http://www.w3.org/1999/xlink"
 xmlns:xodm="http://www.corel.com/coreldraw/odm/2003">
 <defs>
  <style type="text/css">
   <![CDATA[
    .fil0 {fill:#1771F1;fill-rule:nonzero}
   ]]>
  </style>
 </defs>
 <g id="Слой_x0020_1">
  <metadata id="CorelCorpID_0Corel-Layer"/>
  <path class="fil0" d="M146.91 60.26c0,33.28 -21.89,60.27 -55.17,60.27 -33.28,0 -55.17,-26.98 -55.17,-60.27 0,-33.28 21.89,-60.26 55.17,-60.26 33.28,0 55.17,26.98 55.17,60.26z"/>
  <path class="fil0" d="M183.48 198.25c0,17.73 -27.22,23.84 -91.74,23.84 -64.52,0 -91.74,-6.11 -91.74,-23.84 0,-38.85 20.41,-66.39 60.01,-79 8.99,5.51 19.7,8.66 31.73,8.66 12.04,0 22.75,-3.14 31.73,-8.66 39.6,12.61 60.01,40.15 60.01,79z"/>
 </g>
</svg>
